PathFileType	4	(X/Y/Z)	c:/Users/goper/Files/vsCode/490R/osim_files/C03/C03_SSW_06.trc
DataRate	CameraRate	NumFrames	NumMarkers	Units                	OrigDataRate	OrigDataStartFrame	OrigNumFrames
250.00	250.00	4	36	mm	250.0	1170	2339
                Frame#	Time	LPSIS			LASIS			LTH1			LTH2			LTH3			LTH4			LLFE			LMFE			LSH1			LSH2			LSH3			LSH4			LLMAL			LMMAL			LCAL			LMTP5			LTOE			LMTP1			RPSIS			RASIS			RTH1			RTH2			RTH3			RTH4			RLFE			RMFE			RSH1			RSH2			RSH3			RSH4			RLMAL			RMMAL			RCAL			RMTP1			RTOE			RMTP5		
		X1	Y1	Z1	X2	Y2	Z2	X3	Y3	Z3	X4	Y4	Z4	X5	Y5	Z5	X6	Y6	Z6	X7	Y7	Z7	X8	Y8	Z8	X9	Y9	Z9	X10	Y10	Z10	X11	Y11	Z11	X12	Y12	Z12	X13	Y13	Z13	X14	Y14	Z14	X15	Y15	Z15	X16	Y16	Z16	X17	Y17	Z17	X18	Y18	Z18	X19	Y19	Z19	X20	Y20	Z20	X21	Y21	Z21	X22	Y22	Z22	X23	Y23	Z23	X24	Y24	Z24	X25	Y25	Z25	X26	Y26	Z26	X27	Y27	Z27	X28	Y28	Z28	X29	Y29	Z29	X30	Y30	Z30	X31	Y31	Z31	X32	Y32	Z32	X33	Y33	Z33	X34	Y34	Z34	X35	Y35	Z35	X36	Y36	Z36

1170	4.67600	1570.80493	1033.62524	267.45901	0.00000	0.00000	0.00000	1350.08789	638.18268	335.16122	1317.12061	586.85541	324.03183	1283.03662	673.89520	327.71188	1258.68945	618.71295	316.41110	1266.59119	526.07538	312.70505	1262.44202	519.11615	201.95245	1314.54834	340.39816	323.53845	1303.52002	293.09354	319.51120	1254.26245	349.30899	330.94296	1253.12073	300.59134	327.34207	1250.75415	135.17296	306.85849	1229.57812	151.97009	230.35847	1310.84802	84.84788	271.67297	1113.86389	93.01630	334.63809	1084.18420	117.23291	281.65591	1105.99402	96.03215	242.03163	1572.88269	1029.53027	155.39938	1408.48523	977.76361	84.88000	1612.89124	626.52502	87.49468	1627.81848	567.99615	103.13712	1548.19922	608.64526	74.62781	1558.35046	549.76288	78.65620	1572.42249	484.59662	103.78117	1590.35657	506.88004	211.28976	0.00000	0.00000	0.00000	1696.93372	266.04214	102.53557	1630.28723	302.63208	93.82288	1643.48853	261.27081	98.14980	1680.94678	108.87449	132.21671	1673.81494	113.10059	213.42368	1754.61377	73.28661	161.50026	1551.79663	55.61673	220.93987	0.00000	0.00000	0.00000	1566.70239	46.13926	115.74026
1171	4.68000	1565.23840	1032.39392	267.85486	0.00000	0.00000	0.00000	1345.06982	636.56793	335.55811	1312.26123	585.15479	324.52615	1278.01331	672.27863	327.99939	1253.75378	617.04584	316.71082	1261.05005	524.38422	312.98099	1257.87244	517.66986	202.18655	1304.26953	337.14899	323.58792	1294.51965	292.10403	320.44962	1245.22742	348.37778	331.07104	0.00000	0.00000	0.00000	1236.07336	134.15292	306.59540	1214.03821	149.22878	230.03661	1294.97119	82.36166	271.59299	1097.44482	95.36518	333.22028	1069.26917	120.60489	280.04147	1087.88684	100.12804	241.25867	1567.51953	1028.54517	155.74983	1403.17126	976.71564	84.99281	1609.27319	626.42633	87.81781	1624.49377	567.98065	103.49465	1544.74341	608.23724	74.79926	0.00000	0.00000	0.00000	1569.70544	484.45612	103.99136	1587.07947	506.64282	211.47647	0.00000	0.00000	0.00000	1695.50159	266.60074	102.78194	1628.67224	302.71481	94.14616	1641.75146	261.82947	99.02621	1680.50745	109.17738	132.46785	1673.49878	113.25674	213.66618	1754.48071	73.67085	161.70969	1551.04260	54.75221	220.67374	0.00000	0.00000	0.00000	1566.68066	46.17383	115.73547
1172	4.68400	1559.59521	1031.09766	268.27731	0.00000	0.00000	0.00000	1340.21045	635.00739	336.04703	0.00000	0.00000	0.00000	0.00000	0.00000	0.00000	1248.86292	615.23254	317.15213	1254.60352	522.13898	313.26413	1252.62317	515.68079	202.69508	1295.11938	334.71262	323.86533	1283.83521	289.57419	320.70370	1235.69824	346.95966	331.15134	1232.21265	298.88593	328.66943	1220.96350	132.43762	306.03729	1200.01697	148.24040	230.13179	1279.30554	79.74398	271.63055	1081.40662	97.67954	331.71942	1054.49365	123.99004	278.67795	1072.25012	103.36941	239.68349	1561.98877	1027.45349	156.22066	1397.85950	975.66357	85.13417	1605.66150	626.33148	88.15122	1621.03210	567.93292	103.94181	1541.20691	607.81793	74.96045	0.00000	0.00000	0.00000	1566.78271	483.89578	104.26205	1586.11389	508.23853	212.84853	0.00000	0.00000	0.00000	1693.98047	266.96875	103.09538	1626.94446	302.72418	94.49003	1640.51697	261.93689	99.31330	1680.07825	109.44386	132.68156	1673.14343	113.42345	213.87727	1754.20703	73.84192	161.90015	1551.99011	56.26862	220.54623	0.00000	0.00000	0.00000	1566.68506	46.07550	115.83654
1173	4.68800	1554.01758	1029.84753	268.72757	0.00000	0.00000	0.00000	0.00000	0.00000	0.00000	1302.30554	581.66583	325.55502	0.00000	0.00000	0.00000	1244.06970	613.52386	317.73434	1250.76599	520.91321	313.80240	1247.91406	513.94275	203.08192	1285.52185	331.70642	324.01913	1273.31750	287.24893	320.88858	1226.50684	345.71844	331.25729	1221.70007	296.85938	327.31015	1207.10913	132.12415	306.18423	1186.55127	148.04558	229.73822	1263.70850	77.33472	271.61514	1066.45862	100.38699	330.37323	1040.11328	127.53241	277.31830	1058.29749	106.16127	238.59384	1556.65125	1026.46423	156.66550	1392.74280	974.69275	85.17540	1601.90613	626.19458	88.51182	1617.61401	567.94885	104.28146	1537.67419	607.40729	75.02544	1549.44043	549.48572	80.06960	1563.77771	483.71515	104.41975	1580.49792	506.31482	212.06781	0.00000	0.00000	0.00000	1692.44226	267.52942	103.35297	1625.23547	302.55228	94.81000	1638.96313	261.83356	99.69195	1679.59119	109.70490	132.95770	1672.64404	113.56189	214.00040	1754.07947	74.18370	162.13901	1551.74219	56.11428	220.54503	0.00000	0.00000	0.00000	1566.67212	46.06716	115.88845
